# xmcd
#
# Track frame offsets: 
#        150
#        9599
#        20798
#        32543
#        40957
#        57530
#        75528
#        85177
#        93332
#        105414
#        115450
#        128633
#        140191
#
# Disc length: 2043 seconds
#
# Revision: 2
# Processed by: cddbd v1.5.2PL0 Copyright (c) Steve Scherf et al.
# Submitted via: ExactAudioCopy v1.3
#
DISCID=a807f90d
DTITLE=Loretta Lynn - All Time Gospel Favorites CD2
DYEAR=2004
DGENRE=Gospel
TTITLE0=Will the Circle Be Unbroken
TTITLE1=In the Garden
TTITLE2=I'd Rather Have Jesus
TTITLE3=I'll Fly Away
TTITLE4=Softly and Tenderly
TTITLE5=A Message from Jesus
TTITLE6=Unclouded Day
TTITLE7=Old Time Religion
TTITLE8=Put You Hand in the Hand
TTITLE9=If I Could Hear My Mother Pray Again
TTITLE10=The Church in the Wildwood
TTITLE11=I Believe
TTITLE12=When They Ring Those Golden Bells
EXTD=
EXTT0=Loretta Lynn
EXTT1=Loretta Lynn
EXTT2=Loretta Lynn
EXTT3=Loretta Lynn
EXTT4=Loretta Lynn
EXTT5=Loretta Lynn with Ernest Ray Lynn
EXTT6=Unclouded Day
EXTT7=Loretta Lynn
EXTT8=Loretta Lynn
EXTT9=Loretta Lynn
EXTT10=Loretta Lynn
EXTT11=Loretta Lynn
EXTT12=Loretta Lynn
PLAYORDER=
